<svg height="512" viewBox="0 0 64 64" width="512" xmlns="http://www.w3.org/2000/svg"><g id="Glyph"><path d="m28 26h8v2h-8z"/><path d="m36.307 24 2.384-6.356a15.6 15.6 0 0 0 -3.691-.644h-6a15.61 15.61 0 0 0 -3.691.644l2.384 6.356z"/><path d="m26 32h12a1 1 0 0 0 0-2h-12a1 1 0 0 0 0 2z"/><path d="m30.788 11.385a1 1 0 0 1 .182.858l-.689 2.757h3.438l-.689-2.757a1 1 0 0 1 .97-1.243h3v-2h-3a1 1 0 0 1 -1-1v-2.586l-1-1-1 1v2.586a1 1 0 0 1 -1 1h-3v2h3a1 1 0 0 1 .788.385z"/><path d="m36.486 48c-1.871-4.958-1.72-11.436-1.565-14h-5.842c.155 2.564.306 9.042-1.565 14zm-5.486-8h2v2h-2zm0 4h2v2h-2z"/><path d="m24 56h16a1 1 0 0 0 0-2 3 3 0 0 1 -3-3v-1h-10v1a3 3 0 0 1 -3 3 1 1 0 0 0 0 2z"/><path d="m40 58h-16a1 1 0 0 0 -1 1v1h18v-1a1 1 0 0 0 -1-1z"/></g></svg>