<svg height="512" viewBox="0 0 64 64" width="512" xmlns="http://www.w3.org/2000/svg"><g id="Glyph"><path d="m27 24h10v-2c0-1.449 1.71-4.147 3.021-6h-1.607l-2.707 2.707a.981.981 0 0 1 -.807.293 1 1 0 0 1 -.733-.44l-1.702-2.56h-.93l-1.7 2.555a1 1 0 0 1 -1.539.152l-2.71-2.707h-1.607c1.311 1.853 3.021 4.551 3.021 6z"/><path d="m26.707 14.293 2.138 2.137 1.323-1.985a1 1 0 0 1 .832-.445h2a1 1 0 0 1 .832.445l1.323 1.985 2.138-2.137a1 1 0 0 1 .707-.293h.921a7 7 0 0 0 -4.635-5.61 1 1 0 0 1 -.547-1.43 1.967 1.967 0 0 0 .261-.96 2 2 0 0 0 -4 0 1.967 1.967 0 0 0 .261.96 1 1 0 0 1 -.547 1.43 7 7 0 0 0 -4.635 5.61h.921a1 1 0 0 1 .707.293z"/><path d="m24 32h16a1 1 0 0 0 0-2h-16a1 1 0 0 0 0 2z"/><path d="m26 26a1 1 0 0 0 0 2h12a1 1 0 0 0 0-2z"/><path d="m40 58h-16a1 1 0 0 0 -1 1v1h18v-1a1 1 0 0 0 -1-1z"/><path d="m40 54a3 3 0 0 1 -3-3v-1h-10v1a3 3 0 0 1 -3 3 1 1 0 0 0 0 2h16a1 1 0 0 0 0-2z"/><path d="m36.486 48c-1.871-4.958-1.72-11.436-1.565-14h-5.842c.155 2.564.306 9.042-1.565 14zm-5.486-8h2v2h-2zm0 4h2v2h-2z"/></g></svg>