<?xml version="1.0" encoding="UTF-8"?>
<svg xmlns="http://www.w3.org/2000/svg" viewBox="0 0 64 64" width="512" height="512"><g id="Glyph"><path d="M20,55a1,1,0,0,0,1,1H43a1,1,0,0,0,0-2H21A1,1,0,0,0,20,55Z"/><path d="M20.707,25.293a1.714,1.714,0,0,0,2.586,0l4-4A1,1,0,0,1,28,21h6a1,1,0,0,1,1,1v2a1,1,0,0,1-.293.707L24,35.414v4.172l1.707,1.707A1,1,0,0,1,26,42v3a1,1,0,0,1-.293.707L23.414,48H40.586l-2.293-2.293A1,1,0,0,1,38,45V42c0-.773.445-1.824,1.372-3.938C41.1,34.112,44,27.5,44,20A11.988,11.988,0,0,0,34.8,7.98,1,1,0,0,1,34,7c0-2.039-1.813-2.692-3-2.9V7a1,1,0,0,1-1,1H28v3a1,1,0,0,1-.293.707l-9,9a1.719,1.719,0,0,0,0,2.586ZM36,45H34V43h2Zm4-25h2c0,7.45-2.685,13.152-4.461,16.926A13.938,13.938,0,0,0,36,41H34c0-1.253.726-2.793,1.729-4.926C37.531,32.246,40,27,40,20Z"/><rect x="22" y="50" width="20" height="2"/><path d="M45,58H19a1,1,0,0,0-1,1v1H46V59A1,1,0,0,0,45,58Z"/></g></svg>
