<svg height="512" viewBox="0 0 64 64" width="512" xmlns="http://www.w3.org/2000/svg"><g id="Glyph"><path d="m24 15h16a1 1 0 0 0 1-1v-1h-18v1a1 1 0 0 0 1 1z"/><path d="m36.79 48a99.768 99.768 0 0 1 -.916-27h-7.748a99.768 99.768 0 0 1 -.916 27zm-5.79-8h2v2h-2zm0 4h2v2h-2z"/><path d="m41 4h-2v4h-6v-4h-2v4h-6v-4h-2v7h18z"/><path d="m38 17h-12a1 1 0 0 0 0 2h12a1 1 0 0 0 0-2z"/><path d="m43 58h-22a1 1 0 0 0 -1 1v1h24v-1a1 1 0 0 0 -1-1z"/><path d="m23 56h18a1 1 0 0 0 0-2h-18a1 1 0 0 0 0 2z"/><path d="m25 51a1 1 0 0 0 1 1h12a1 1 0 0 0 0-2h-12a1 1 0 0 0 -1 1z"/></g></svg>