<svg height="512" viewBox="0 0 64 64" width="512" xmlns="http://www.w3.org/2000/svg"><g id="Glyph"><path d="m25 28h14a1 1 0 0 0 0-2h-14a1 1 0 0 0 0 2z"/><path d="m28 22a1 1 0 0 0 -1 1v1h10v-1a1 1 0 0 0 -1-1z"/><path d="m29.568 20h4.864a10.828 10.828 0 0 1 1.342-1.522c1.145-1.145 2.226-2.226 2.226-4.478 0-2.29-1.816-3.229-4.192-4.219-.241-.1-.473-.2-.69-.293a1 1 0 0 1 -.107-1.776 2 2 0 1 0 -2.022 0 1 1 0 0 1 -.108 1.776c-.213.094-.44.189-.677.287l-.479.2 2.454 1.725a2.8 2.8 0 1 1 -3.336 4.5l-2.843-2.006c.06 2.121 1.111 3.173 2.223 4.284a10.828 10.828 0 0 1 1.345 1.522z"/><path d="m37.484 48c-2.315-6.3-1.363-15.678-1.318-16.1a.894.894 0 0 1 .046-.211l.56-1.689h-9.544l.56 1.684a.894.894 0 0 1 .046.211c.045.427 1 9.8-1.318 16.105zm-6.484-8h2v2h-2zm0 4h2v2h-2z"/><path d="m23.045 56h17.91a.956.956 0 0 0 .955-.955.98.98 0 0 0 -.955-1.045 2.958 2.958 0 0 1 -2.955-2.955v-1.045h-12v1.045a2.958 2.958 0 0 1 -2.955 2.955.956.956 0 0 0 -.955.955.98.98 0 0 0 .955 1.045z"/><path d="m41 58h-18a1 1 0 0 0 -1 1v1h20v-1a1 1 0 0 0 -1-1z"/></g></svg>